
<svg width="171" height="20" viewBox="0 0 171 20" fill="none" xmlns="http://www.w3.org/2000/svg">
<path d="M1.218 16V6.13H4.55C5.62333 6.13 6.52867 6.32133 7.266 6.704C8.01267 7.07733 8.57733 7.63267 8.96 8.37C9.352 9.098 9.548 9.994 9.548 11.058C9.548 12.122 9.352 13.0227 8.96 13.76C8.57733 14.4973 8.01267 15.0573 7.266 15.44C6.52867 15.8133 5.62333 16 4.55 16H1.218ZM2.366 15.02H4.466C5.76333 15.02 6.72933 14.6887 7.364 14.026C8.008 13.3633 8.33 12.374 8.33 11.058C8.33 9.742 8.008 8.75733 7.364 8.104C6.72 7.44133 5.754 7.11 4.466 7.11H2.366V15.02ZM14.5206 16.126C13.802 16.126 13.1813 15.986 12.6586 15.706C12.1453 15.4167 11.744 15.0107 11.4546 14.488C11.1746 13.9653 11.0346 13.34 11.0346 12.612C11.0346 11.9027 11.1746 11.2867 11.4546 10.764C11.7346 10.232 12.1173 9.81667 12.6026 9.518C13.0973 9.21933 13.6666 9.07 14.3106 9.07C14.9266 9.07 15.454 9.20533 15.8926 9.476C16.3313 9.74667 16.6673 10.1293 16.9006 10.624C17.1433 11.1187 17.2646 11.7113 17.2646 12.402V12.836H11.9026V12.094H16.5086L16.2846 12.276C16.2846 11.5293 16.1166 10.9507 15.7806 10.54C15.454 10.12 14.9733 9.91 14.3386 9.91C13.8626 9.91 13.4566 10.022 13.1206 10.246C12.794 10.4607 12.5466 10.764 12.3786 11.156C12.2106 11.5387 12.1266 11.9867 12.1266 12.5V12.584C12.1266 13.1533 12.2153 13.634 12.3926 14.026C12.5793 14.418 12.8546 14.7167 13.2186 14.922C13.5826 15.118 14.0166 15.216 14.5206 15.216C14.922 15.216 15.3093 15.1553 15.6826 15.034C16.0653 14.9033 16.4246 14.6933 16.7606 14.404L17.1526 15.202C16.8446 15.482 16.4526 15.706 15.9766 15.874C15.5006 16.042 15.0153 16.126 14.5206 16.126ZM21.2018 16.126C20.8471 16.126 20.5018 16.0887 20.1658 16.014C19.8391 15.9487 19.5311 15.8553 19.2418 15.734C18.9618 15.6033 18.7191 15.4493 18.5138 15.272L18.8778 14.474C19.1018 14.6513 19.3445 14.8007 19.6058 14.922C19.8671 15.034 20.1331 15.118 20.4038 15.174C20.6745 15.23 20.9498 15.258 21.2298 15.258C21.7618 15.258 22.1631 15.16 22.4338 14.964C22.7045 14.768 22.8398 14.502 22.8398 14.166C22.8398 13.9047 22.7511 13.6993 22.5738 13.55C22.3965 13.3913 22.1165 13.27 21.7338 13.186L20.4598 12.906C19.8718 12.7847 19.4331 12.5747 19.1438 12.276C18.8638 11.9773 18.7238 11.59 18.7238 11.114C18.7238 10.694 18.8311 10.3347 19.0458 10.036C19.2698 9.728 19.5825 9.49 19.9838 9.322C20.3851 9.154 20.8518 9.07 21.3838 9.07C21.7011 9.07 22.0045 9.10267 22.2938 9.168C22.5831 9.23333 22.8538 9.33133 23.1058 9.462C23.3671 9.58333 23.5911 9.73733 23.7778 9.924L23.3998 10.722C23.2225 10.554 23.0218 10.414 22.7978 10.302C22.5738 10.1807 22.3405 10.092 22.0978 10.036C21.8645 9.97067 21.6265 9.938 21.3838 9.938C20.8611 9.938 20.4645 10.0407 20.1938 10.246C19.9231 10.4513 19.7878 10.722 19.7878 11.058C19.7878 11.3193 19.8718 11.534 20.0398 11.702C20.2078 11.87 20.4691 11.9913 20.8238 12.066L22.0978 12.332C22.7045 12.4627 23.1571 12.6727 23.4558 12.962C23.7638 13.242 23.9178 13.6247 23.9178 14.11C23.9178 14.5207 23.8058 14.88 23.5818 15.188C23.3578 15.4867 23.0405 15.72 22.6298 15.888C22.2285 16.0467 21.7525 16.126 21.2018 16.126ZM25.506 7.502V6.228H26.906V7.502H25.506ZM25.646 16V9.196H26.78V16H25.646ZM31.9099 18.646C31.3219 18.646 30.7666 18.5667 30.2439 18.408C29.7306 18.2587 29.2733 18.03 28.8719 17.722L29.2499 16.896C29.5299 17.092 29.8053 17.2507 30.0759 17.372C30.3559 17.5027 30.6406 17.596 30.9299 17.652C31.2286 17.708 31.5366 17.736 31.8539 17.736C32.5166 17.736 33.0159 17.5587 33.3519 17.204C33.6973 16.8493 33.8699 16.336 33.8699 15.664V14.082H34.0099C33.8699 14.6233 33.5713 15.0527 33.1139 15.37C32.6659 15.6873 32.1386 15.846 31.5319 15.846C30.9066 15.846 30.3653 15.706 29.9079 15.426C29.4506 15.1367 29.0959 14.7353 28.8439 14.222C28.6013 13.7087 28.4799 13.116 28.4799 12.444C28.4799 11.772 28.6013 11.184 28.8439 10.68C29.0959 10.1667 29.4506 9.77 29.9079 9.49C30.3653 9.21 30.9066 9.07 31.5319 9.07C32.1479 9.07 32.6799 9.22867 33.1279 9.546C33.5759 9.854 33.8653 10.274 33.9959 10.806H33.8699V9.196H34.9759V15.51C34.9759 16.2007 34.8593 16.7793 34.6259 17.246C34.4019 17.7127 34.0613 18.0627 33.6039 18.296C33.1466 18.5293 32.5819 18.646 31.9099 18.646ZM31.7419 14.922C32.3953 14.922 32.9133 14.698 33.2959 14.25C33.6786 13.802 33.8699 13.2 33.8699 12.444C33.8699 11.688 33.6786 11.0907 33.2959 10.652C32.9133 10.204 32.3953 9.98 31.7419 9.98C31.0979 9.98 30.5846 10.204 30.2019 10.652C29.8193 11.0907 29.6279 11.688 29.6279 12.444C29.6279 13.2 29.8193 13.802 30.2019 14.25C30.5846 14.698 31.0979 14.922 31.7419 14.922ZM37.1031 16V9.196H38.2091V10.708H38.0551C38.2511 10.1667 38.5684 9.76067 39.0071 9.49C39.4551 9.21 39.9684 9.07 40.5471 9.07C41.0884 9.07 41.5364 9.168 41.8911 9.364C42.2551 9.55067 42.5257 9.84467 42.7031 10.246C42.8804 10.6473 42.9691 11.1513 42.9691 11.758V16H41.8351V11.828C41.8351 11.408 41.7791 11.0627 41.6671 10.792C41.5644 10.5213 41.3964 10.3207 41.1631 10.19C40.9391 10.0593 40.6451 9.994 40.2811 9.994C39.8704 9.994 39.5111 10.0827 39.2031 10.26C38.8951 10.4373 38.6571 10.6847 38.4891 11.002C38.3211 11.3193 38.2371 11.6927 38.2371 12.122V16H37.1031ZM48.6558 18.52V9.196H49.7618V10.806H49.6218C49.7711 10.274 50.0651 9.854 50.5038 9.546C50.9518 9.22867 51.4838 9.07 52.0998 9.07C52.7065 9.07 53.2338 9.21467 53.6818 9.504C54.1391 9.784 54.4891 10.19 54.7318 10.722C54.9838 11.2447 55.1098 11.87 55.1098 12.598C55.1098 13.3167 54.9838 13.942 54.7318 14.474C54.4891 14.9967 54.1438 15.4027 53.6958 15.692C53.2478 15.9813 52.7158 16.126 52.0998 16.126C51.4838 16.126 50.9565 15.972 50.5178 15.664C50.0791 15.3467 49.7805 14.9267 49.6218 14.404H49.7898V18.52H48.6558ZM51.8618 15.216C52.5058 15.216 53.0145 14.992 53.3878 14.544C53.7705 14.0867 53.9618 13.438 53.9618 12.598C53.9618 11.7487 53.7705 11.1 53.3878 10.652C53.0145 10.204 52.5058 9.98 51.8618 9.98C51.2271 9.98 50.7185 10.204 50.3358 10.652C49.9531 11.1 49.7618 11.7487 49.7618 12.598C49.7618 13.438 49.9531 14.0867 50.3358 14.544C50.7185 14.992 51.2271 15.216 51.8618 15.216ZM59.6459 16.126C58.9832 16.126 58.4092 15.9813 57.9239 15.692C57.4386 15.4027 57.0606 14.9967 56.7899 14.474C56.5286 13.942 56.3979 13.3167 56.3979 12.598C56.3979 11.8793 56.5286 11.2587 56.7899 10.736C57.0606 10.204 57.4386 9.79333 57.9239 9.504C58.4092 9.21467 58.9832 9.07 59.6459 9.07C60.3086 9.07 60.8826 9.21467 61.3679 9.504C61.8532 9.79333 62.2266 10.204 62.4879 10.736C62.7586 11.2587 62.8939 11.8793 62.8939 12.598C62.8939 13.3167 62.7586 13.942 62.4879 14.474C62.2266 14.9967 61.8532 15.4027 61.3679 15.692C60.8826 15.9813 60.3086 16.126 59.6459 16.126ZM59.6459 15.216C60.2899 15.216 60.7986 14.992 61.1719 14.544C61.5546 14.0867 61.7459 13.4333 61.7459 12.584C61.7459 11.744 61.5546 11.1 61.1719 10.652C60.7986 10.204 60.2899 9.98 59.6459 9.98C59.0112 9.98 58.5026 10.204 58.1199 10.652C57.7372 11.1 57.5459 11.744 57.5459 12.584C57.5459 13.4333 57.7372 14.0867 58.1199 14.544C58.5026 14.992 59.0112 15.216 59.6459 15.216ZM64.5972 16V9.196H65.7032V10.806H65.5632C65.7219 10.2553 65.9972 9.84 66.3892 9.56C66.7812 9.27067 67.2992 9.10267 67.9432 9.056L68.3492 9.014L68.4332 9.994L67.7192 10.078C67.0845 10.134 66.5945 10.3393 66.2492 10.694C65.9132 11.0393 65.7452 11.5153 65.7452 12.122V16H64.5972Z" fill="#C8D3D9"/>
<path d="M81.6262 9.56933V20H77V4.29668H81.6262C82.8599 1.73678 84.8646 0.59055 87.3319 0.59055C90.1077 0.59055 92.0353 1.81319 92.8449 4.22027C94.1942 1.73678 96.3916 0.59055 99.0903 0.59055C102.868 0.59055 105.143 2.92121 105.143 7.3915V20H100.478V8.65235C100.478 5.93961 99.5914 4.60234 97.3169 4.60234C95.158 4.60234 93.3846 6.24527 93.3846 9.56933V20H88.7198V8.65235C88.7198 5.93961 87.8331 4.60234 85.5585 4.60234C83.3996 4.60234 81.6262 6.24527 81.6262 9.56933Z" fill="#F1F0F0"/>
<path d="M167.271 6.28962C165.457 6.28962 164.122 4.95799 164.122 3.149C164.122 1.33162 165.457 0 167.271 0C169.086 0 170.421 1.33162 170.421 3.149C170.421 4.95799 169.086 6.28962 167.271 6.28962ZM167.271 5.57774C168.657 5.57774 169.674 4.55599 169.674 3.149C169.674 1.73362 168.657 0.711874 167.271 0.711874C165.886 0.711874 164.878 1.73362 164.878 3.149C164.878 4.55599 165.886 5.57774 167.271 5.57774ZM167.28 4.19587C167.691 4.19587 167.876 4.01162 167.952 3.60124H168.733C168.565 4.53924 168.086 4.90774 167.28 4.90774C166.373 4.90774 165.776 4.34662 165.776 3.18249V3.082C165.776 1.90112 166.373 1.34 167.28 1.34C168.179 1.34 168.641 1.85925 168.691 2.62137H167.91C167.859 2.23612 167.666 2.05187 167.28 2.05187C166.768 2.05187 166.532 2.43712 166.532 3.0485V3.216C166.532 3.81062 166.768 4.19587 167.28 4.19587Z" fill="#F1F0F0"/>
<path d="M136.764 9.56933V20H132.138V4.29668H136.764C137.998 1.73678 140.003 0.59055 142.47 0.59055C145.246 0.59055 147.173 1.81319 147.983 4.22027C149.332 1.73678 151.53 0.59055 154.228 0.59055C158.006 0.59055 160.281 2.92121 160.281 7.3915V20H155.616V8.65235C155.616 5.93961 154.729 4.60234 152.455 4.60234C150.296 4.60234 148.523 6.24527 148.523 9.56933V20H143.858V8.65235C143.858 5.93961 142.971 4.60234 140.696 4.60234C138.538 4.60234 136.764 6.24527 136.764 9.56933Z" fill="#F1F0F0"/>
<path d="M109.096 1.10088H114.229L118.614 7.45267L122.927 1.10088H127.953L121.199 10.3475L128.06 19.9994H122.927L118.478 13.6654L113.837 19.9994H108.811L116.032 10.7441L109.096 1.10088Z" fill="#F1F0F0"/>
</svg>
