<svg xmlns="http://www.w3.org/2000/svg" xmlns:xlink="http://www.w3.org/1999/xlink" width="500" zoomAndPan="magnify" viewBox="0 0 375 374.999991" height="500" preserveAspectRatio="xMidYMid meet" version="1.0"><defs><clipPath id="6983223006"><path d="M 89 91.152344 L 285.695312 91.152344 L 285.695312 283.847656 L 89 283.847656 Z M 89 91.152344 " clip-rule="nonzero"/></clipPath><clipPath id="b55aaa5407"><path d="M 107.230469 283.265625 C 97.40625 283.265625 89.441406 275.300781 89.441406 265.480469 L 89.441406 109.523438 C 89.441406 102.363281 93.710938 95.914062 100.296875 93.136719 C 106.886719 90.359375 114.503906 91.78125 119.625 96.761719 L 280.148438 252.695312 C 287.191406 259.535156 287.351562 270.804688 280.515625 277.851562 C 273.675781 284.894531 262.40625 285.058594 255.359375 278.21875 L 125.015625 151.617188 L 125.015625 265.480469 C 125.015625 275.300781 117.054688 283.265625 107.230469 283.265625 " clip-rule="nonzero"/></clipPath><clipPath id="025e7aad0c"><path d="M 11 91.152344 L 207.777344 91.152344 L 207.777344 283.847656 L 11 283.847656 Z M 11 91.152344 " clip-rule="nonzero"/></clipPath><clipPath id="e772ab6128"><path d="M 29.261719 283.265625 C 19.441406 283.265625 11.476562 275.300781 11.476562 265.480469 L 11.476562 109.523438 C 11.476562 102.386719 15.746094 95.914062 22.332031 93.136719 C 28.917969 90.359375 36.515625 91.78125 41.65625 96.761719 L 202.179688 252.71875 C 209.226562 259.558594 209.386719 270.828125 202.546875 277.871094 C 195.707031 284.917969 184.4375 285.078125 177.390625 278.238281 L 47.050781 151.617188 L 47.050781 265.480469 C 47.050781 275.300781 39.085938 283.265625 29.261719 283.265625 " clip-rule="nonzero"/></clipPath><clipPath id="abaa530cc1"><path d="M 167 91.152344 L 363.609375 91.152344 L 363.609375 283.847656 L 167 283.847656 Z M 167 91.152344 " clip-rule="nonzero"/></clipPath><clipPath id="9e73561927"><path d="M 345.71875 283.265625 C 341.242188 283.265625 336.792969 281.589844 333.324219 278.238281 L 172.800781 122.285156 C 167.613281 117.234375 165.984375 109.546875 168.71875 102.84375 C 171.449219 96.140625 177.964844 91.734375 185.21875 91.734375 L 345.742188 91.734375 C 355.566406 91.734375 363.53125 99.699219 363.53125 109.523438 C 363.53125 119.347656 355.566406 127.3125 345.742188 127.3125 L 229.054688 127.3125 L 358.136719 252.695312 C 365.183594 259.535156 365.34375 270.804688 358.503906 277.851562 C 355.015625 281.453125 350.378906 283.242188 345.742188 283.242188 " clip-rule="nonzero"/></clipPath><clipPath id="d053b056e0"><path d="M 323 169.066406 L 359 169.066406 L 359 205.933594 L 323 205.933594 Z M 323 169.066406 " clip-rule="nonzero"/></clipPath><clipPath id="b366e37b9d"><path d="M 358.777344 187.488281 C 358.777344 197.3125 350.816406 205.277344 340.992188 205.277344 C 331.167969 205.277344 323.203125 197.3125 323.203125 187.488281 C 323.203125 177.667969 331.167969 169.703125 340.992188 169.703125 C 350.816406 169.703125 358.777344 177.667969 358.777344 187.488281 " clip-rule="nonzero"/></clipPath></defs><g clip-path="url(#6983223006)"><g clip-path="url(#b55aaa5407)"><path fill="#95c11f" d="M 0 80.261719 L 375.339844 80.261719 L 375.339844 294.738281 L 0 294.738281 Z M 0 80.261719 " fill-opacity="1" fill-rule="nonzero"/></g></g><g clip-path="url(#025e7aad0c)"><g clip-path="url(#e772ab6128)"><path fill="#ffffff" d="M 0 80.261719 L 375.339844 80.261719 L 375.339844 294.738281 L 0 294.738281 Z M 0 80.261719 " fill-opacity="1" fill-rule="nonzero"/></g></g><g clip-path="url(#abaa530cc1)"><g clip-path="url(#9e73561927)"><path fill="#95c11f" d="M 0 80.261719 L 375.339844 80.261719 L 375.339844 294.738281 L 0 294.738281 Z M 0 80.261719 " fill-opacity="1" fill-rule="nonzero"/></g></g><g clip-path="url(#d053b056e0)"><g clip-path="url(#b366e37b9d)"><path fill="#ffffff" d="M 0 80.261719 L 375.339844 80.261719 L 375.339844 294.738281 L 0 294.738281 Z M 0 80.261719 " fill-opacity="1" fill-rule="nonzero"/></g></g></svg>